mtllib OBJ_PCB_New Project.mtl
usemtl mtl1
v 4749.3999999999905 -3516.4035856252617 5
v 4250.105807051464 -3519.396358010567 0
v 4250.105807051464 -3519.396358010567 10
vn -29.927723853052157 4992.941929485269 0
f 1//1 2//1 3//1
v 4254.59428281965 -3050.6 0
v 4254.59428281965 -3050.6 10
vn 4687.96358010567 -44.884757681866176 0
f 2//2 4//2 5//2
f 5//2 3//2 2//2
v 4749.4 -3050.6 5
vn 0 -4948.0571718034935 0
f 6//3 5//3 4//3
v 4250.134461255153 -3516.4035856252613 0
vn 14.963861926528352 -0.14327101844628487 -1494.1881172903084
f 7//4 1//4 2//4
v 4250.134461255153 -3516.4035856252613 10
vn -14.963861926528352 0.14327101844628487 -1494.1881172903084
f 8//5 1//5 3//5
vn 2329.017928126309 -4.547473508864641e-11 -230482.27725048593
f 4//6 6//6 1//6
vn -2329.017928126309 4.547473508864641e-11 -230482.27725048593
f 5//7 6//7 1//7
vn 2329.0179281263067 -22.299107822486803 -232559.6781264732
f 1//8 7//8 4//8
vn -2329.0179281263067 22.299107822486803 -232559.6781264732
f 1//9 8//9 5//9